<svg fill="currentColor" height="24" viewBox="0 0 24 24" width="24" xmlns="http://www.w3.org/2000/svg">
  <path clip-rule="evenodd"
    d="m8.13788 2.00012h7.71552c3.2134 0 5.1379 1.95144 5.1466 5.20972v9.58056c0 3.2583-1.9158 5.2097-5.1379 5.2097h-2.8563c-.3663-.0409-.6436-.3548-.6436-.7285 0-.3736.2773-.6875.6436-.7284h2.8476c2.4557 0 3.6923-1.2627 3.6923-3.7528v-9.58056c0-2.49007-1.2366-3.75276-3.6923-3.75276h-7.71552c-2.45573 0-3.70102 1.26269-3.70102 3.75276v9.58056c0 2.4901 1.24529 3.7528 3.70102 3.7528.36631.0409.64357.3548.64357.7284 0 .3737-.27726.6876-.64357.7285-3.21335 0-5.13788-1.9514-5.13788-5.2097v-9.58056c0-3.26711 1.92453-5.20972 5.13788-5.20972zm.25254 6.4989h2.74308c.3663-.04096.6436-.3548.6436-.72848s-.2773-.68752-.6436-.72848h-2.74308c-.36631.04096-.64357.3548-.64357.72848s.27726.68752.64357.72848zm7.20178 4.22958h-7.20178-.00871c-.3663-.041-.64357-.3548-.64357-.7285s.27727-.6875.64357-.7285h7.21049c.2755-.0308.5442.101.6915.3391s.1473.5407 0 .7789c-.1473.2381-.416.3698-.6915.339zm0 4.2296h-7.20178-.00871c-.39437 0-.71408-.3242-.71408-.7241s.31971-.724.71408-.724h7.21049c.3943 0 .714.3241.714.724s-.3197.7241-.714.7241z"
    fill="currentColor" fill-rule="evenodd" />
</svg>